<?xml version="1.0" standalone="no"?><!-- Generator: Gravit.io --><svg xmlns="http://www.w3.org/2000/svg" xmlns:xlink="http://www.w3.org/1999/xlink" style="isolation:isolate" viewBox="0 0 512 512" width="512" height="512"><g><defs><filter id="xqpvqp5L8MChXDTD712MvZe48uxM90b0" x="-200%" y="-200%" width="400%" height="400%" filterUnits="objectBoundingBox" color-interpolation-filters="sRGB"><feGaussianBlur xmlns="http://www.w3.org/2000/svg" in="SourceGraphic" stdDeviation="1.7174436251356113"/><feOffset xmlns="http://www.w3.org/2000/svg" dx="0" dy="2" result="pf_100_offsetBlur"/><feFlood xmlns="http://www.w3.org/2000/svg" flood-color="#000000" flood-opacity="0.65"/><feComposite xmlns="http://www.w3.org/2000/svg" in2="pf_100_offsetBlur" operator="in" result="pf_100_dropShadow"/><feBlend xmlns="http://www.w3.org/2000/svg" in="SourceGraphic" in2="pf_100_dropShadow" mode="normal"/></filter></defs><g filter="url(#xqpvqp5L8MChXDTD712MvZe48uxM90b0)"><radialGradient id="_rgradient_0" fx="0.5" fy="0.5" cx="0.5" cy="0.5" r="0.5" gradientTransform="matrix(369.594,0,0,236.619,72.836,140.321)" gradientUnits="userSpaceOnUse"><stop offset="0%" stop-opacity="1" style="stop-color:rgb(46,46,46)"/><stop offset="100%" stop-opacity="1" style="stop-color:rgb(51,46,46)"/></radialGradient><path d=" M 73.533 328.951 C 71.931 317.754 73.6 314.318 73.533 302.812 C 73.351 271.162 77.239 230.448 94.141 213.102 C 99.305 207.803 103.488 197.741 115.648 189.502 Q 118.678 187.449 127.441 177.696 Q 150.566 159.423 164.667 154.085 C 170.81 151.759 179.729 143.749 186.409 142.279 C 207.681 137.595 228.332 142.866 247.321 142.279 C 271.042 141.545 297.801 148.328 316.137 154.085 C 318.124 154.708 338.116 141.321 339.724 142.279 C 341.316 143.227 338.475 152.938 339.724 154.085 C 346.078 156.522 347.007 163.663 352.794 166.438 C 357.083 168.494 371.212 163.702 375.104 165.89 C 377.906 167.466 372.088 176.569 377.689 179.35 Q 386.091 183.522 398.691 189.502 Q 397.587 197.615 400.5 202.479 C 409.337 217.234 416.326 250.402 424.066 260.318 C 439.165 279.661 447.728 304.129 438.807 333.708 C 436.116 342.63 420.148 366.469 413.443 376.322 C 410.237 381.033 415.622 357.123 413.443 362.046 L 413.443 342.946 L 388.717 319.338 L 353.368 283.926 L 306.236 272.122 L 294.453 307.534 L 294.453 272.122 Q 286.775 271.897 282.67 272.122 Q 250.647 273.875 270.887 295.73 L 259.104 283.926 C 250.404 327.623 246.488 351.243 247.321 331.142 Q 250.856 318.157 235.538 283.926 C 234.797 283.016 227.682 272.122 223.755 272.122 Q 217.863 272.122 211.972 283.926 L 200.188 331.142 L 189.584 302.812 L 153.056 283.926 Q 123.339 315.844 117.707 319.338 C 107.2 325.855 122.531 303.257 117.707 307.534 C 104.228 319.484 101.29 354.296 94.141 362.046 C 92.176 371.563 97.576 376.322 94.141 376.322 Q 88.989 376.322 79.688 350.24 C 72.611 337.254 79.78 333.544 73.533 328.951 Z " fill="url(#_rgradient_0)"/></g><g><defs><filter id="kEk65X3PTeAXLUXskiYQVd7MZepvrFBJ" x="-200%" y="-200%" width="400%" height="400%" filterUnits="objectBoundingBox" color-interpolation-filters="sRGB"><feGaussianBlur xmlns="http://www.w3.org/2000/svg" in="SourceGraphic" stdDeviation="1.7174436251356113"/><feOffset xmlns="http://www.w3.org/2000/svg" dx="0" dy="2" result="pf_100_offsetBlur"/><feFlood xmlns="http://www.w3.org/2000/svg" flood-color="#000000" flood-opacity="0.65"/><feComposite xmlns="http://www.w3.org/2000/svg" in2="pf_100_offsetBlur" operator="in" result="pf_100_dropShadow"/><feBlend xmlns="http://www.w3.org/2000/svg" in="SourceGraphic" in2="pf_100_dropShadow" mode="normal"/></filter></defs><g filter="url(#kEk65X3PTeAXLUXskiYQVd7MZepvrFBJ)"><path d=" M 45.73 300.611 Q 36.464 277.623 39.955 264.969 C 44.423 248.773 57.116 239.828 71.227 239.254 C 86.183 238.646 97.578 249.957 104.904 264.969 Q 110.697 276.84 109.715 302.684 Q 105.041 324.91 97.807 333.541 Q 90.56 342.188 71.828 347.827 Q 61.915 341.286 57.716 336.023 Q 49.764 326.056 45.73 300.611 Z " fill="rgb(237,237,232)"/></g><defs><filter id="B9Ph79ODN9Y7y9U6SPMOT1h8gDLyWLhT" x="-200%" y="-200%" width="400%" height="400%" filterUnits="objectBoundingBox" color-interpolation-filters="sRGB"><feGaussianBlur xmlns="http://www.w3.org/2000/svg" in="SourceGraphic" stdDeviation="1.7174436251356113"/><feOffset xmlns="http://www.w3.org/2000/svg" dx="0" dy="2" result="pf_100_offsetBlur"/><feFlood xmlns="http://www.w3.org/2000/svg" flood-color="#000000" flood-opacity="0.65"/><feComposite xmlns="http://www.w3.org/2000/svg" in2="pf_100_offsetBlur" operator="in" result="pf_100_dropShadow"/><feBlend xmlns="http://www.w3.org/2000/svg" in="SourceGraphic" in2="pf_100_dropShadow" mode="normal"/></filter></defs><g filter="url(#B9Ph79ODN9Y7y9U6SPMOT1h8gDLyWLhT)"><path d=" M 466.27 300.611 Q 475.536 277.623 472.045 264.969 C 467.577 248.773 454.884 239.828 440.773 239.254 C 425.817 238.646 414.422 249.957 407.096 264.969 Q 401.303 276.84 402.285 302.684 Q 406.959 324.91 414.193 333.541 Q 421.44 342.188 440.172 347.827 Q 450.085 341.286 454.284 336.023 Q 462.236 326.056 466.27 300.611 Z " fill="rgb(237,237,232)"/></g><path d=" M 60.079 297.07 Q 55.447 285.576 57.192 279.249 C 59.426 271.151 65.772 266.678 72.828 266.392 C 80.306 266.088 86.003 271.743 89.666 279.249 Q 92.563 285.185 92.072 298.106 Q 89.735 309.22 86.118 313.535 Q 82.494 317.858 73.128 320.678 Q 68.172 317.407 66.072 314.776 Q 62.096 309.792 60.079 297.07 Z " fill="rgb(216,216,213)"/><path d=" M 451.921 297.07 Q 456.553 285.576 454.808 279.249 C 452.574 271.151 446.228 266.678 439.172 266.392 C 431.694 266.088 425.997 271.743 422.334 279.249 Q 419.437 285.185 419.928 298.106 Q 422.265 309.22 425.882 313.535 Q 429.506 317.858 438.872 320.678 Q 443.828 317.407 445.928 314.776 Q 449.904 309.792 451.921 297.07 Z " fill="rgb(216,216,213)"/><defs><filter id="pP67mLfEEUNRzK24LtGsmk5SHRfEMM4u" x="-200%" y="-200%" width="400%" height="400%" filterUnits="objectBoundingBox" color-interpolation-filters="sRGB"><feGaussianBlur xmlns="http://www.w3.org/2000/svg" in="SourceGraphic" stdDeviation="1.7174436251356113"/><feOffset xmlns="http://www.w3.org/2000/svg" dx="0" dy="2" result="pf_100_offsetBlur"/><feFlood xmlns="http://www.w3.org/2000/svg" flood-color="#000000" flood-opacity="0.65"/><feComposite xmlns="http://www.w3.org/2000/svg" in2="pf_100_offsetBlur" operator="in" result="pf_100_dropShadow"/><feBlend xmlns="http://www.w3.org/2000/svg" in="SourceGraphic" in2="pf_100_dropShadow" mode="normal"/></filter></defs><g filter="url(#pP67mLfEEUNRzK24LtGsmk5SHRfEMM4u)"><path d=" M 83.286 321.858 C 74.115 266.327 69.435 214.444 95.962 163.759 C 127.528 103.444 179.679 59.916 248.521 57.547 C 321.484 55.036 379.174 100.076 412.815 163.759 C 439.547 214.362 434.716 266.294 425.762 321.858 C 418.222 368.648 410.57 411.449 378.196 446.993 Q 344.169 484.351 251.454 506 Q 164.202 482.474 131.754 446.993 C 99.248 411.447 91.028 368.739 83.286 321.858 Z " fill="rgb(237,237,232)"/></g></g><ellipse vector-effect="non-scaling-stroke" cx="143.51428423216126" cy="227.42678617129306" rx="4.723809522796444" ry="4.721579873492573" fill="rgb(46,46,46)"/><radialGradient id="_rgradient_1" fx="0.5" fy="0.5" cx="0.5" cy="0.5" r="0.5" gradientTransform="matrix(83.972,0,0,35.418,130.399,187.288)" gradientUnits="userSpaceOnUse"><stop offset="0%" stop-opacity="1" style="stop-color:rgb(46,46,46)"/><stop offset="100%" stop-opacity="1" style="stop-color:rgb(23,23,23)"/></radialGradient><path d=" M 171.677 193.191 L 171.677 193.191 C 181.44 189.933 196.414 192.602 205.093 199.149 L 205.093 199.149 L 214.371 206.147 L 177.573 199.093 L 130.399 222.705 L 135.96 217.139 C 145.909 207.179 161.913 196.448 171.677 193.191 Z " fill="url(#_rgradient_1)"/><radialGradient id="_rgradient_2" fx="0.5" fy="0.5" cx="0.5" cy="0.5" r="0.5" gradientTransform="matrix(-82.189,0,0,35.418,389.856,186.805)" gradientUnits="userSpaceOnUse"><stop offset="0%" stop-opacity="1" style="stop-color:rgb(46,46,46)"/><stop offset="100%" stop-opacity="1" style="stop-color:rgb(23,23,23)"/></radialGradient><path d=" M 342.682 192.708 L 342.682 192.708 C 329.664 189.45 313.974 195.255 307.667 205.664 L 307.667 205.664 L 330.889 198.611 L 389.856 222.222 L 384.296 216.656 C 374.346 206.697 355.7 195.966 342.682 192.708 Z " fill="url(#_rgradient_2)"/><g><defs><filter id="rAkW7cKhCYE7CvFGPfrKMOZni8P0AI33" x="-200%" y="-200%" width="400%" height="400%" filterUnits="objectBoundingBox" color-interpolation-filters="sRGB"><feOffset xmlns="http://www.w3.org/2000/svg" in="SourceGraphic" dx="0" dy="2"/><feGaussianBlur xmlns="http://www.w3.org/2000/svg" stdDeviation="1.2880827188517086" result="pf_100_offsetBlur"/><feComposite xmlns="http://www.w3.org/2000/svg" in="SourceGraphic" in2="pf_100_offsetBlur" result="pf_100_inverse" operator="out"/><feFlood xmlns="http://www.w3.org/2000/svg" flood-color="#000000" flood-opacity="0.5" result="pf_100_color"/><feComposite xmlns="http://www.w3.org/2000/svg" in="pf_100_color" in2="pf_100_inverse" operator="in" result="pf_100_shadow"/><feComposite xmlns="http://www.w3.org/2000/svg" in="pf_100_shadow" in2="SourceGraphic" operator="over"/></filter></defs><g filter="url(#rAkW7cKhCYE7CvFGPfrKMOZni8P0AI33)"><linearGradient id="_lgradient_0" x1="0.5" y1="-8.326672684688674e-16" x2="0.5000000000000001" y2="0.9999999999999991" gradientTransform="matrix(115.476,0,0,59.02,283.715,222.705)" gradientUnits="userSpaceOnUse"><stop offset="0%" stop-opacity="1" style="stop-color:rgb(255,255,255)"/><stop offset="100%" stop-opacity="1" style="stop-color:rgb(209,209,209)"/></linearGradient><path d=" M 283.715 252.215 C 283.715 235.928 309.586 222.705 341.453 222.705 C 373.319 222.705 399.19 235.928 399.19 252.215 C 399.19 268.502 373.319 281.725 341.453 281.725 C 309.586 281.725 283.715 268.502 283.715 252.215 Z " fill="url(#_lgradient_0)"/></g><linearGradient id="_lgradient_1" x1="0" y1="0.5" x2="1" y2="0.5" gradientTransform="matrix(59.048,0,0,59.02,307.667,222.705)" gradientUnits="userSpaceOnUse"><stop offset="0%" stop-opacity="1" style="stop-color:rgb(46,46,46)"/><stop offset="100%" stop-opacity="1" style="stop-color:rgb(17,0,0)"/></linearGradient><ellipse vector-effect="non-scaling-stroke" cx="337.19047621960726" cy="252.21508050712893" rx="29.52380951747773" ry="29.50987420932867" fill="url(#_lgradient_1)"/><ellipse vector-effect="non-scaling-stroke" cx="337.19047621960726" cy="251.03468553875587" rx="14.761904758738865" ry="14.754937104664279" fill="rgb(0,0,0)"/><ellipse vector-effect="non-scaling-stroke" cx="337.1904762196074" cy="252.21508050712916" rx="5.904761903495569" ry="5.901974841865723" fill="rgb(255,255,255)"/></g><g><defs><filter id="nlxqYWeAYgNv6fft2g7XNtwNX1SPeIsa" x="-200%" y="-200%" width="400%" height="400%" filterUnits="objectBoundingBox" color-interpolation-filters="sRGB"><feOffset xmlns="http://www.w3.org/2000/svg" in="SourceGraphic" dx="0" dy="2"/><feGaussianBlur xmlns="http://www.w3.org/2000/svg" stdDeviation="1.2880827188517086" result="pf_100_offsetBlur"/><feComposite xmlns="http://www.w3.org/2000/svg" in="SourceGraphic" in2="pf_100_offsetBlur" result="pf_100_inverse" operator="out"/><feFlood xmlns="http://www.w3.org/2000/svg" flood-color="#000000" flood-opacity="0.5" result="pf_100_color"/><feComposite xmlns="http://www.w3.org/2000/svg" in="pf_100_color" in2="pf_100_inverse" operator="in" result="pf_100_shadow"/><feComposite xmlns="http://www.w3.org/2000/svg" in="pf_100_shadow" in2="SourceGraphic" operator="over"/></filter></defs><g filter="url(#nlxqYWeAYgNv6fft2g7XNtwNX1SPeIsa)"><linearGradient id="_lgradient_2" x1="0.5" y1="-8.326672684688674e-16" x2="0.5000000000000001" y2="0.9999999999999991" gradientTransform="matrix(114.874,0,0,59.02,121.667,222.705)" gradientUnits="userSpaceOnUse"><stop offset="0%" stop-opacity="1" style="stop-color:rgb(255,255,255)"/><stop offset="100%" stop-opacity="1" style="stop-color:rgb(209,209,209)"/></linearGradient><path d=" M 121.667 252.215 C 121.667 235.928 147.403 222.705 179.104 222.705 C 210.804 222.705 236.541 235.928 236.541 252.215 C 236.541 268.502 210.804 281.725 179.104 281.725 C 147.403 281.725 121.667 268.502 121.667 252.215 Z " fill="url(#_lgradient_2)"/></g><linearGradient id="_lgradient_3" x1="0" y1="0.5" x2="1" y2="0.5" gradientTransform="matrix(59.048,0,0,59.02,156.955,222.705)" gradientUnits="userSpaceOnUse"><stop offset="0%" stop-opacity="1" style="stop-color:rgb(46,46,46)"/><stop offset="100%" stop-opacity="1" style="stop-color:rgb(17,0,0)"/></linearGradient><ellipse vector-effect="non-scaling-stroke" cx="186.4786491517812" cy="252.21508050712913" rx="29.5238095174777" ry="29.509874209328686" fill="url(#_lgradient_3)"/><ellipse vector-effect="non-scaling-stroke" cx="186.47864915178116" cy="252.21508050712907" rx="14.761904758738837" ry="14.754937104664279" fill="rgb(0,0,0)"/><ellipse vector-effect="non-scaling-stroke" cx="186.47864915178124" cy="252.21508050712916" rx="5.90476190349554" ry="5.901974841865723" fill="rgb(255,255,255)"/></g><g><path d=" M 214.763 345.466 Q 211.321 341.62 238.166 333.662 Q 245.224 300.611 255.719 300.611 Q 266.214 300.611 270.931 333.662 Q 300.117 341.62 296.675 345.466 C 293.233 349.312 260.966 364.353 255.719 364.353 C 250.471 364.353 218.205 349.312 214.763 345.466 Z " fill="rgb(191,191,191)"/><path d=" M 255.719 364.353 C 260.966 364.353 293.233 349.312 296.675 345.466 Q 300.117 341.62 270.931 333.662 Q 266.214 300.611 255.719 300.611 L 255.719 364.353 C 255.719 364.353 255.719 364.353 255.719 364.353 L 255.719 364.353 Z " fill="rgb(213,213,213)"/></g><g><line x1="402.143" y1="262.839" x2="437.571" y2="239.231" vector-effect="non-scaling-stroke" stroke-width="4" stroke="rgb(0,0,0)" stroke-linejoin="miter" stroke-linecap="square" stroke-miterlimit="3"/><line x1="106.905" y1="262.839" x2="71.476" y2="239.231" vector-effect="non-scaling-stroke" stroke-width="4" stroke="rgb(0,0,0)" stroke-linejoin="miter" stroke-linecap="square" stroke-miterlimit="3"/><path d="M 224.871 271.1 L 284.176 271.1 L 284.176 273.461 L 287.995 273.461 L 287.995 272.281 L 286.086 272.281 L 286.086 274.642 L 289.904 274.642 L 289.904 274.642 L 286.086 274.642 L 286.086 277.003 L 287.995 277.003 L 287.995 275.823 L 284.176 275.823 L 284.176 278.184 L 224.871 278.184 L 224.871 275.823 L 221.053 275.823 L 221.053 277.003 L 222.962 277.003 L 222.962 274.642 L 219.143 274.642 L 219.143 274.642 L 222.962 274.642 L 222.962 272.281 L 221.053 272.281 L 221.053 273.461 L 224.871 273.461 L 224.871 271.1 Z" style="stroke:none;fill:#2E2E2E;stroke-miterlimit:10;"/><defs><filter id="NYgxzpXLA5oKq4qKpS9DbIFe0v0wWFjY" x="-200%" y="-200%" width="400%" height="400%" filterUnits="objectBoundingBox" color-interpolation-filters="sRGB"><feGaussianBlur xmlns="http://www.w3.org/2000/svg" in="SourceGraphic" stdDeviation="3.8642481565551257"/><feOffset xmlns="http://www.w3.org/2000/svg" dx="0" dy="3" result="pf_100_offsetBlur"/><feFlood xmlns="http://www.w3.org/2000/svg" flood-color="#000000" flood-opacity="0.65"/><feComposite xmlns="http://www.w3.org/2000/svg" in2="pf_100_offsetBlur" operator="in" result="pf_100_dropShadow"/><feBlend xmlns="http://www.w3.org/2000/svg" in="SourceGraphic" in2="pf_100_dropShadow" mode="normal"/></filter><linearGradient id="_lgradient_4" x1="0" y1="0.5" x2="1" y2="0.5"><stop offset="0%" style="stop-color:#2E2E4E"/><stop offset="100%" style="stop-color:#000000"/></linearGradient><linearGradient id="_lgradient_5" x1="0" y1="0.5" x2="1" y2="0.5"><stop offset="0%" style="stop-color:#2E2E4E"/><stop offset="100%" style="stop-color:#000000"/></linearGradient></defs><g filter="url(#NYgxzpXLA5oKq4qKpS9DbIFe0v0wWFjY)"><path d="M 120.285 239.231 L 208.093 239.231 C 223.942 239.231 236.81 257.362 236.81 279.695 L 236.81 290.376 C 236.81 305.146 218.823 317.137 196.669 317.137 L 147.045 317.137 C 124.891 317.137 106.905 299.15 106.905 276.996 L 106.905 252.611 L 120.285 239.231 Z" style="fill:none;stroke:#000000;stroke-width:4;stroke-linecap:square;stroke-miterlimit:2;"/></g><defs><filter id="uT4dD2G8BDDTbJGDovD4hMhII0sXHzI6" x="-200%" y="-200%" width="400%" height="400%" filterUnits="objectBoundingBox" color-interpolation-filters="sRGB"><feGaussianBlur xmlns="http://www.w3.org/2000/svg" in="SourceGraphic" stdDeviation="3.8642481565551257"/><feOffset xmlns="http://www.w3.org/2000/svg" dx="0" dy="3" result="pf_100_offsetBlur"/><feFlood xmlns="http://www.w3.org/2000/svg" flood-color="#000000" flood-opacity="0.65"/><feComposite xmlns="http://www.w3.org/2000/svg" in2="pf_100_offsetBlur" operator="in" result="pf_100_dropShadow"/><feBlend xmlns="http://www.w3.org/2000/svg" in="SourceGraphic" in2="pf_100_dropShadow" mode="normal"/></filter><linearGradient id="_lgradient_6" x1="0" y1="0.5" x2="1" y2="0.5"><stop offset="0%" style="stop-color:#2E2E2E"/><stop offset="100%" style="stop-color:#2E2E4E"/></linearGradient><linearGradient id="_lgradient_7" x1="0" y1="0.5" x2="1" y2="0.5"><stop offset="0%" style="stop-color:#2E2E2E"/><stop offset="100%" style="stop-color:#2E2E4E"/></linearGradient></defs><g filter="url(#uT4dD2G8BDDTbJGDovD4hMhII0sXHzI6)"><path d="M 300.954 239.231 L 388.763 239.231 L 402.143 252.611 L 402.143 276.996 C 402.143 299.15 384.156 317.137 362.002 317.137 L 312.379 317.137 C 290.225 317.137 272.238 305.146 272.238 290.376 L 272.238 279.695 C 272.238 257.362 285.105 239.231 300.954 239.231 Z" style="fill:none;stroke:#000000;stroke-width:4;stroke-linecap:square;stroke-miterlimit:2;"/></g></g><defs><filter id="vSJJUeilVOiHvYL5F4d3xRXS2Z8Y8mTC" x="-200%" y="-200%" width="400%" height="400%" filterUnits="objectBoundingBox" color-interpolation-filters="sRGB"><feGaussianBlur xmlns="http://www.w3.org/2000/svg" in="SourceGraphic" stdDeviation="1.7174436251356113"/><feOffset xmlns="http://www.w3.org/2000/svg" dx="0" dy="2" result="pf_100_offsetBlur"/><feFlood xmlns="http://www.w3.org/2000/svg" flood-color="#000000" flood-opacity="0.65"/><feComposite xmlns="http://www.w3.org/2000/svg" in2="pf_100_offsetBlur" operator="in" result="pf_100_dropShadow"/><feBlend xmlns="http://www.w3.org/2000/svg" in="SourceGraphic" in2="pf_100_dropShadow" mode="normal"/></filter></defs><g filter="url(#vSJJUeilVOiHvYL5F4d3xRXS2Z8Y8mTC)"><radialGradient id="_rgradient_3" fx="0.5" fy="0.5" cx="0.5" cy="0.5" r="0.5" gradientTransform="matrix(412.594,0,0,268.643,45.669,6)" gradientUnits="userSpaceOnUse"><stop offset="0%" stop-opacity="1" style="stop-color:rgb(46,46,46)"/><stop offset="100%" stop-opacity="1" style="stop-color:rgb(51,46,46)"/></radialGradient><path d=" M 59.639 249.808 C 55.781 237.399 59.675 229.95 59.639 227.459 C 61.997 216.834 47.816 210.624 47.845 206.147 C 47.923 194.202 48.168 190.924 47.845 180.236 C 47.471 167.862 43.141 152.374 47.845 142.279 C 52.549 132.184 56.513 127.482 59.639 119.929 C 61.48 115.48 67.307 101.089 69.414 97.595 C 71.94 93.405 81.742 89.692 84.405 86.96 C 89.569 81.661 84.939 70.416 97.099 62.177 Q 100.13 60.124 130.399 38.566 Q 151.679 20.293 165.78 14.954 C 171.923 12.628 182.688 16.425 189.367 14.954 C 223.339 0.518 253.851 5.801 260.128 14.954 C 283.849 14.221 300.759 16.281 319.095 22.037 C 321.082 22.661 346.971 13.996 348.579 14.954 C 350.171 15.902 365.02 29.155 366.269 30.301 C 372.623 32.739 367.558 35.791 373.345 38.566 C 377.634 40.621 385.964 36.377 389.856 38.566 C 392.658 40.141 396.048 47.59 401.649 50.371 Q 410.051 54.543 413.443 63.831 Q 410.53 82.096 413.443 86.96 C 419.105 96.414 430.878 94.611 438.807 108.22 C 443.254 115.851 445.368 134.067 446.465 137.735 C 449.142 146.69 455.202 153.739 455.899 168.407 C 458.976 166.433 459.125 199.143 455.899 214.473 C 460.811 234.556 447.263 250.689 438.807 262.839 L 427.024 227.427 L 391.675 203.819 L 356.326 168.407 L 309.194 156.603 L 297.411 192.015 L 297.411 156.603 Q 289.733 156.378 285.628 156.603 Q 253.605 158.356 273.845 180.211 L 262.062 168.407 C 253.362 212.104 249.446 235.724 250.279 215.623 Q 253.814 202.638 238.496 168.407 C 237.756 167.497 230.64 156.603 226.713 156.603 Q 220.821 156.603 214.93 168.407 L 203.147 215.623 L 192.542 187.293 L 156.015 168.407 Q 126.298 200.325 120.665 203.819 C 110.159 210.336 125.489 187.738 120.665 192.015 C 107.187 203.966 104.249 219.676 97.099 227.427 Q 71.661 255.006 73.533 274.643 Q 62.806 259.996 59.639 249.808 Z " fill="url(#_rgradient_3)"/></g></g></svg>