<?xml version="1.0" standalone="no"?><!-- Generator: Gravit.io --><svg xmlns="http://www.w3.org/2000/svg" xmlns:xlink="http://www.w3.org/1999/xlink" style="isolation:isolate" viewBox="0 0 95.5 148.5" width="95.5" height="148.5"><g><linearGradient id="_lgradient_1" x1="0" y1="0.5" x2="1" y2="0.4999999999999998" gradientTransform="matrix(90,0,0,140,2.75,0.5)" gradientUnits="userSpaceOnUse"><stop offset="0%" stop-opacity="1" style="stop-color:rgb(150,237,136)"/><stop offset="100%" stop-opacity="1" style="stop-color:rgb(237,153,136)"/></linearGradient><path d=" M 76.04 100.5 L 82.75 100.5 L 82.75 100.5 C 82.75 89.462 68.896 80.5 51.832 80.5 L 47.75 80.5 L 47.75 80.5 L 44.142 80.5 L 44.142 80.5 C 26.816 80.5 12.75 89.462 12.75 100.5 L 12.75 100.5 L 19.46 100.5 C 18.353 103.628 17.75 106.994 17.75 110.5 C 17.75 127.057 31.193 140.5 47.75 140.5 C 64.307 140.5 77.75 127.057 77.75 110.5 C 77.75 106.994 77.147 103.628 76.04 100.5 L 76.04 100.5 L 76.04 100.5 Z  M 7.75 40.5 C 7.75 18.423 25.673 0.5 47.75 0.5 C 69.827 0.5 87.75 18.423 87.75 40.5 C 87.75 62.577 69.827 80.5 47.75 80.5 L 47.75 80.5 C 25.673 80.5 7.75 62.577 7.75 40.5 L 7.75 40.5 L 7.75 40.5 L 7.75 40.5 Z  M 82.75 110.5 L 88.75 110.5 C 90.958 110.5 92.75 112.292 92.75 114.5 L 92.75 126.5 C 92.75 128.708 90.958 130.5 88.75 130.5 L 86.75 130.5 C 84.542 130.5 82.75 128.708 82.75 126.5 L 82.75 110.5 L 82.75 110.5 Z  M 6.75 110.5 L 12.75 110.5 L 12.75 126.5 C 12.75 128.708 10.958 130.5 8.75 130.5 L 6.75 130.5 C 4.542 130.5 2.75 128.708 2.75 126.5 L 2.75 114.5 C 2.75 112.292 4.542 110.5 6.75 110.5 Z " fill-rule="evenodd" fill="url(#_lgradient_1)" vector-effect="non-scaling-stroke" stroke-width="1" stroke="rgb(46,46,46)" stroke-linejoin="miter" stroke-linecap="square" stroke-miterlimit="3"/><path d=" M 78.174 107.365 C 79.223 110.522 79.758 113.813 79.758 117.135 C 79.758 125.454 76.379 133.434 70.387 139.317 C 64.384 145.189 56.24 148.5 47.75 148.5 C 39.26 148.5 31.116 145.189 25.113 139.317 C 19.121 133.434 15.742 125.454 15.742 117.135 C 15.742 113.813 16.277 110.522 17.326 107.365 L 11.019 107.365 C 10.883 107.365 10.746 107.314 10.652 107.211 C 10.547 107.118 10.495 106.985 10.495 106.851 C 10.495 105.391 10.736 103.941 11.187 102.552 C 11.659 101.133 12.331 99.796 13.171 98.562 C 14.073 97.256 15.112 96.053 16.287 94.984 C 17.557 93.822 18.932 92.783 20.391 91.878 C 21.965 90.901 23.623 90.048 25.344 89.328 C 27.181 88.556 29.08 87.909 31.011 87.405 C 35.241 86.304 39.596 85.749 43.961 85.77 L 47.75 85.77 L 52.032 85.77 C 56.345 85.759 60.637 86.304 64.793 87.405 C 66.703 87.909 68.571 88.556 70.376 89.328 C 72.076 90.048 73.703 90.901 75.256 91.878 C 76.704 92.783 78.058 93.822 79.296 94.984 C 80.461 96.053 81.49 97.256 82.371 98.562 C 83.2 99.796 83.862 101.144 84.323 102.552 C 84.775 103.941 85.005 105.391 85.005 106.851 C 85.005 106.985 84.953 107.118 84.848 107.211 C 84.754 107.314 84.617 107.365 84.481 107.365 L 78.174 107.365 Z  M 76.946 107.026 C 78.111 110.265 78.709 113.69 78.709 117.135 C 78.709 125.177 75.445 132.9 69.642 138.587 C 63.838 144.273 55.957 147.472 47.75 147.472 C 39.543 147.472 31.662 144.273 25.858 138.587 C 20.055 132.9 16.791 125.177 16.791 117.135 C 16.791 113.69 17.389 110.265 18.554 107.026 C 18.617 106.861 18.586 106.687 18.491 106.553 C 18.386 106.419 18.229 106.337 18.061 106.337 L 11.554 106.337 C 11.607 105.154 11.817 103.992 12.184 102.871 C 12.625 101.545 13.255 100.29 14.042 99.138 C 14.892 97.894 15.889 96.752 17.012 95.734 C 18.218 94.613 19.541 93.616 20.958 92.742 C 22.479 91.796 24.085 90.973 25.754 90.274 C 27.548 89.523 29.395 88.896 31.284 88.402 C 35.419 87.322 39.68 86.788 43.961 86.798 C 43.961 86.798 43.961 86.798 43.961 86.798 L 47.75 86.798 L 52.032 86.798 C 52.032 86.798 52.032 86.798 52.032 86.798 C 56.251 86.788 60.448 87.322 64.52 88.402 C 66.378 88.896 68.193 89.513 69.956 90.274 C 71.604 90.963 73.189 91.796 74.689 92.742 C 76.075 93.616 77.376 94.613 78.572 95.724 C 79.674 96.752 80.65 97.894 81.49 99.128 C 82.277 100.29 82.886 101.545 83.326 102.861 C 83.683 103.992 83.893 105.154 83.946 106.337 L 77.439 106.337 C 77.271 106.337 77.114 106.419 77.009 106.553 C 76.914 106.687 76.883 106.861 76.946 107.026 Z  M 5.247 45.149 C 5.247 34.104 9.728 23.502 17.694 15.696 C 25.659 7.891 36.479 3.5 47.75 3.5 C 59.021 3.5 69.841 7.891 77.806 15.696 C 85.772 23.502 90.253 34.104 90.253 45.149 C 90.253 56.194 85.772 66.796 77.806 74.601 C 69.841 82.407 59.021 86.798 47.75 86.798 C 36.479 86.798 25.659 82.407 17.694 74.601 C 9.728 66.796 5.247 56.194 5.247 45.149 Z  M 6.297 45.149 C 6.297 34.382 10.662 24.037 18.439 16.427 C 26.205 8.806 36.762 4.528 47.75 4.528 C 58.738 4.528 69.295 8.806 77.061 16.427 C 84.838 24.037 89.203 34.382 89.203 45.149 C 89.203 55.916 84.838 66.261 77.061 73.871 C 69.295 81.491 58.738 85.77 47.75 85.77 C 36.762 85.77 26.205 81.491 18.439 73.871 C 10.662 66.261 6.297 55.916 6.297 45.149 Z  M 83.956 116.621 L 90.777 116.621 C 92.026 116.621 93.233 117.104 94.115 117.978 C 95.007 118.842 95.5 120.024 95.5 121.248 L 95.5 133.589 C 95.5 134.812 95.007 135.995 94.115 136.859 C 93.233 137.733 92.026 138.216 90.777 138.216 L 88.679 138.216 C 87.43 138.216 86.223 137.733 85.341 136.859 C 84.449 135.995 83.956 134.812 83.956 133.589 L 83.956 116.621 Z  M 85.005 117.649 L 90.777 117.649 C 91.753 117.649 92.687 118.029 93.37 118.708 C 94.062 119.377 94.451 120.292 94.451 121.248 L 94.451 133.589 C 94.451 134.545 94.062 135.46 93.37 136.129 C 92.687 136.807 91.753 137.188 90.777 137.188 L 88.679 137.188 C 87.703 137.188 86.769 136.807 86.086 136.129 C 85.394 135.46 85.005 134.545 85.005 133.589 L 85.005 117.649 Z  M 4.723 116.621 L 11.544 116.621 L 11.544 133.589 C 11.544 134.812 11.051 135.995 10.159 136.859 C 9.277 137.733 8.07 138.216 6.821 138.216 L 4.723 138.216 C 3.474 138.216 2.267 137.733 1.385 136.859 C 0.493 135.995 0 134.812 0 133.589 L 0 121.248 C 0 120.024 0.493 118.842 1.385 117.978 C 2.267 117.104 3.474 116.621 4.723 116.621 Z  M 4.723 117.649 L 10.495 117.649 L 10.495 133.589 C 10.495 134.545 10.106 135.46 9.414 136.129 C 8.731 136.807 7.797 137.188 6.821 137.188 L 4.723 137.188 C 3.747 137.188 2.813 136.807 2.13 136.129 C 1.438 135.46 1.049 134.545 1.049 133.589 L 1.049 121.248 C 1.049 120.292 1.438 119.377 2.13 118.708 C 2.813 118.029 3.747 117.649 4.723 117.649 Z " fill-rule="evenodd" fill="rgb(46,46,46)"/></g></svg>