<?xml version="1.0" standalone="no"?><!-- Generator: Gravit.io --><svg xmlns="http://www.w3.org/2000/svg" xmlns:xlink="http://www.w3.org/1999/xlink" style="isolation:isolate" viewBox="0 0 96 149" width="96" height="149"><g><linearGradient id="_lgradient_3" x1="0" y1="0.5" x2="1" y2="0.4999999999999998" gradientTransform="matrix(90.471,0,0,140.946,2.764,0)" gradientUnits="userSpaceOnUse"><stop offset="0%" stop-opacity="1" style="stop-color:rgb(46,46,46)"/><stop offset="100%" stop-opacity="1" style="stop-color:rgb(70,70,70)"/></linearGradient><path d=" M 76.438 100.676 L 83.183 100.676 L 83.183 100.676 C 83.183 89.563 69.257 80.541 52.103 80.541 L 48 80.541 L 48 80.541 L 44.373 80.541 L 44.373 80.541 C 26.956 80.541 12.817 89.563 12.817 100.676 L 12.817 100.676 L 19.562 100.676 C 18.449 103.825 17.843 107.214 17.843 110.743 C 17.843 127.413 31.356 140.946 48 140.946 C 64.644 140.946 78.157 127.413 78.157 110.743 C 78.157 107.214 77.551 103.825 76.438 100.676 L 76.438 100.676 L 76.438 100.676 Z  M 7.791 40.27 C 7.791 18.045 25.808 0 48 0 C 70.192 0 88.209 18.045 88.209 40.27 C 88.209 42.703 87.994 45.086 87.58 47.4 C 84.215 66.23 67.763 80.541 48 80.541 L 48 80.541 C 25.808 80.541 7.791 62.496 7.791 40.27 L 7.791 40.27 L 7.791 40.27 L 7.791 40.27 Z  M 83.183 110.743 L 89.215 110.743 C 91.434 110.743 93.236 112.548 93.236 114.77 L 93.236 126.851 C 93.236 129.074 91.434 130.878 89.215 130.878 L 87.204 130.878 C 84.985 130.878 83.183 129.074 83.183 126.851 L 83.183 110.743 L 83.183 110.743 Z  M 6.785 110.743 L 12.817 110.743 L 12.817 126.851 C 12.817 129.074 11.015 130.878 8.796 130.878 L 6.785 130.878 C 4.566 130.878 2.764 129.074 2.764 126.851 L 2.764 114.77 C 2.764 112.548 4.566 110.743 6.785 110.743 Z " fill-rule="evenodd" fill="url(#_lgradient_3)" vector-effect="non-scaling-stroke" stroke-width="1" stroke="rgb(46,46,46)" stroke-linejoin="miter" stroke-linecap="square" stroke-miterlimit="3"/><path d=" M 78.583 107.587 C 79.638 110.766 80.176 114.079 80.176 117.423 C 80.176 125.799 76.779 133.833 70.755 139.755 C 64.721 145.666 56.535 149 48 149 C 39.465 149 31.279 145.666 25.245 139.755 C 19.221 133.833 15.824 125.799 15.824 117.423 C 15.824 114.079 16.362 110.766 17.417 107.587 L 11.077 107.587 C 10.94 107.587 10.803 107.536 10.708 107.432 C 10.602 107.339 10.549 107.204 10.549 107.07 C 10.549 105.6 10.792 104.14 11.246 102.742 C 11.72 101.313 12.396 99.967 13.24 98.725 C 14.147 97.41 15.191 96.199 16.373 95.122 C 17.649 93.952 19.031 92.907 20.498 91.995 C 22.08 91.012 23.747 90.153 25.477 89.428 C 27.323 88.651 29.233 87.999 31.174 87.492 C 35.425 86.384 39.803 85.825 44.192 85.846 L 48 85.846 L 52.304 85.846 C 56.64 85.835 60.955 86.384 65.132 87.492 C 67.052 87.999 68.93 88.651 70.745 89.428 C 72.454 90.153 74.089 91.012 75.65 91.995 C 77.106 92.907 78.467 93.952 79.712 95.122 C 80.883 96.199 81.916 97.41 82.803 98.725 C 83.636 99.967 84.301 101.324 84.765 102.742 C 85.218 104.14 85.451 105.6 85.451 107.07 C 85.451 107.204 85.398 107.339 85.292 107.432 C 85.197 107.536 85.06 107.587 84.923 107.587 L 78.583 107.587 Z  M 77.349 107.246 C 78.52 110.507 79.121 113.955 79.121 117.423 C 79.121 125.519 75.84 133.294 70.006 139.02 C 64.172 144.745 56.25 147.965 48 147.965 C 39.75 147.965 31.828 144.745 25.994 139.02 C 20.16 133.294 16.879 125.519 16.879 117.423 C 16.879 113.955 17.48 110.507 18.651 107.246 C 18.715 107.08 18.683 106.904 18.588 106.769 C 18.483 106.635 18.324 106.552 18.156 106.552 L 11.615 106.552 C 11.668 105.361 11.879 104.191 12.248 103.063 C 12.691 101.727 13.324 100.464 14.115 99.305 C 14.97 98.052 15.972 96.903 17.101 95.878 C 18.314 94.749 19.643 93.745 21.067 92.865 C 22.597 91.913 24.211 91.084 25.888 90.38 C 27.692 89.625 29.549 88.993 31.448 88.496 C 35.604 87.409 39.887 86.871 44.192 86.881 C 44.192 86.881 44.192 86.881 44.192 86.881 L 48 86.881 L 52.304 86.881 C 52.304 86.881 52.304 86.881 52.304 86.881 C 56.545 86.871 60.765 87.409 64.858 88.496 C 66.725 88.993 68.55 89.614 70.323 90.38 C 71.979 91.074 73.572 91.913 75.08 92.865 C 76.473 93.745 77.781 94.749 78.984 95.868 C 80.091 96.903 81.073 98.052 81.916 99.294 C 82.708 100.464 83.32 101.727 83.763 103.053 C 84.121 104.191 84.332 105.361 84.385 106.552 L 77.844 106.552 C 77.676 106.552 77.517 106.635 77.412 106.769 C 77.317 106.904 77.285 107.08 77.349 107.246 Z  M 5.275 44.951 C 5.275 33.831 9.779 23.157 17.786 15.299 C 25.793 7.441 36.67 3.02 48 3.02 C 59.33 3.02 70.207 7.441 78.214 15.299 C 86.221 23.157 90.725 33.831 90.725 44.951 C 90.725 56.07 86.221 66.744 78.214 74.602 C 70.207 82.46 59.33 86.881 48 86.881 C 36.67 86.881 25.793 82.46 17.786 74.602 C 9.779 66.744 5.275 56.07 5.275 44.951 Z  M 6.33 44.951 C 6.33 34.111 10.718 23.696 18.535 16.034 C 26.342 8.363 36.955 4.056 48 4.056 C 59.045 4.056 69.658 8.363 77.465 16.034 C 85.282 23.696 89.67 34.111 89.67 44.951 C 89.67 55.79 85.282 66.206 77.465 73.867 C 69.658 81.539 59.045 85.846 48 85.846 C 36.955 85.846 26.342 81.539 18.535 73.867 C 10.718 66.206 6.33 55.79 6.33 44.951 Z  M 84.396 116.905 L 91.253 116.905 C 92.508 116.905 93.721 117.392 94.607 118.272 C 95.504 119.141 96 120.332 96 121.564 L 96 133.988 C 96 135.22 95.504 136.411 94.607 137.28 C 93.721 138.16 92.508 138.647 91.253 138.647 L 89.143 138.647 C 87.887 138.647 86.674 138.16 85.788 137.28 C 84.891 136.411 84.396 135.22 84.396 133.988 L 84.396 116.905 Z  M 85.451 117.94 L 91.253 117.94 C 92.234 117.94 93.173 118.324 93.858 119.007 C 94.555 119.68 94.945 120.601 94.945 121.564 L 94.945 133.988 C 94.945 134.951 94.555 135.872 93.858 136.545 C 93.173 137.228 92.234 137.612 91.253 137.612 L 89.143 137.612 C 88.162 137.612 87.223 137.228 86.537 136.545 C 85.841 135.872 85.451 134.951 85.451 133.988 L 85.451 117.94 Z  M 4.747 116.905 L 11.604 116.905 L 11.604 133.988 C 11.604 135.22 11.109 136.411 10.212 137.28 C 9.326 138.16 8.113 138.647 6.857 138.647 L 4.747 138.647 C 3.492 138.647 2.279 138.16 1.393 137.28 C 0.496 136.411 0 135.22 0 133.988 L 0 121.564 C 0 120.332 0.496 119.141 1.393 118.272 C 2.279 117.392 3.492 116.905 4.747 116.905 Z  M 4.747 117.94 L 10.549 117.94 L 10.549 133.988 C 10.549 134.951 10.159 135.872 9.463 136.545 C 8.777 137.228 7.838 137.612 6.857 137.612 L 4.747 137.612 C 3.766 137.612 2.827 137.228 2.142 136.545 C 1.445 135.872 1.055 134.951 1.055 133.988 L 1.055 121.564 C 1.055 120.601 1.445 119.68 2.142 119.007 C 2.827 118.324 3.766 117.94 4.747 117.94 Z " fill-rule="evenodd" fill="rgb(46,46,46)"/></g></svg>